<?xml version="1.0" encoding="utf-8"?>
<svg width="27px" height="27px" viewBox="0 0 27 27" version="1.1" xmlns:xlink="http://www.w3.org/1999/xlink" xmlns="http://www.w3.org/2000/svg">
  <g id="003-city">
    <path d="M22.1868 8.87478L22.1868 4.43722L19.968 4.43722L19.968 2.21844L17.7492 2.21844L17.7492 4.43722L15.5308 4.43722L15.5308 1.84741e-15L13.312 1.84741e-15L13.312 4.43722L11.0932 4.43722L11.0932 8.99791L17.7492 7.00145L17.7492 8.87444L19.968 8.87444L19.968 11.0932L17.7492 11.0932L17.7492 13.312L19.968 13.312L19.968 15.5308L17.7492 15.5308L17.7492 17.7492L19.968 17.7492L19.968 19.968L17.7492 19.968L17.7492 22.1868L19.968 22.1868L19.968 24.4052L17.7492 24.4052L17.7492 26.624L26.624 26.624L26.624 8.87478L22.1868 8.87478ZM24.4052 24.4052L22.1868 24.4052L22.1868 22.1868L24.4052 22.1868L24.4052 24.4052ZM24.4052 19.968L22.1868 19.968L22.1868 17.7492L24.4052 17.7492L24.4052 19.968ZM24.4052 15.5308L22.1868 15.5308L22.1868 13.312L24.4052 13.312L24.4052 15.5308Z" id="Shape" fill="#454657" stroke="none" />
    <path d="M4.43722 13.312L4.43722 26.624L8.87411 26.624L8.87411 23.296L11.0932 23.296L11.0932 26.624L15.5304 26.624L15.5304 9.984L4.43722 13.312ZM8.87478 21.0772L6.656 21.0772L6.656 18.8588L8.87478 18.8588L8.87478 21.0772ZM13.312 21.0772L11.0932 21.0772L11.0932 18.8588L13.312 18.8588L13.312 21.0772ZM13.312 16.64L11.0932 16.64L11.0932 14.4212L13.312 14.4212L13.312 16.64Z" id="Shape" fill="#9B9BA2" stroke="none" />
    <path d="M8.87478 8.20851L5.54678 5.54678L0 9.984L0 26.624L2.21878 26.624L2.21878 11.661L8.87478 9.66351L8.87478 8.20851Z" id="Path" fill="#454657" stroke="none" />
  </g>
</svg>