<?xml version="1.0" encoding="utf-8"?>
<svg width="30px" height="30px" viewBox="0 0 30 30" version="1.1" xmlns:xlink="http://www.w3.org/1999/xlink" xmlns="http://www.w3.org/2000/svg">
  <g id="005-bus">
    <path d="M29.695 5.30267L28.2325 3.84017C28.0679 3.67561 27.8447 3.58312 27.612 3.58312L26.4926 3.58312C26.3712 1.59506 24.7161 0.014625 22.698 0.014625L7.254 0.014625C5.23593 0.014625 3.58078 1.59506 3.4594 3.58312L2.34 3.58312C2.10723 3.58312 1.88405 3.67561 1.71955 3.84017L0.257049 5.30267C0.09243 5.46723 0 5.69041 0 5.92313L0 10.3106C0 10.7952 0.392886 11.1881 0.8775 11.1881C1.36211 11.1881 1.755 10.7952 1.755 10.3106L1.755 6.28659L2.70346 5.33812L3.4515 5.33812L3.4515 15.9201C7.0847 16.6394 22.9691 16.6192 26.5005 15.9201L26.5005 5.33812L27.2485 5.33812L28.197 6.28659L28.197 10.3106C28.197 10.7952 28.5899 11.1881 29.0745 11.1881C29.5591 11.1881 29.952 10.7952 29.952 10.3106L29.952 5.92313C29.952 5.69041 29.8596 5.46723 29.695 5.30267Z" id="Path" fill="#454657" stroke="none" />
    <path d="M4.446 28.1186L4.446 28.4749C4.446 29.2816 5.10179 29.9374 5.9085 29.9374L8.658 29.9374C9.46472 29.9374 10.1205 29.2816 10.1205 28.4749L10.1205 28.1531C4.63361 28.1415 4.85275 28.1794 4.446 28.1186Z" id="Path" fill="#454657" stroke="none" />
    <path d="M19.8315 28.1531L19.8315 28.4749C19.8315 29.2816 20.4873 29.9374 21.294 29.9374L24.0435 29.9374C24.8502 29.9374 25.506 29.2816 25.506 28.4749L25.506 28.1186C25.0993 28.1794 25.3189 28.1415 19.8315 28.1531Z" id="Path" fill="#454657" stroke="none" />
    <path d="M3.4515 17.7022L3.4515 20.9477L8.98338 21.9066C9.30565 21.9624 9.57001 22.1929 9.66952 22.5044L10.9122 26.3982L19.0399 26.3982L20.2827 22.5044C20.3821 22.1928 20.6465 21.9624 20.9688 21.9066L26.5005 20.9477L26.5005 17.7022C22.2739 18.377 7.68023 18.3772 3.4515 17.7022L3.4515 17.7022ZM17.6085 22.0106L12.3435 22.0106C11.8589 22.0106 11.466 21.6177 11.466 21.1331C11.466 20.6485 11.8589 20.2556 12.3435 20.2556L17.6085 20.2556C18.0931 20.2556 18.486 20.6485 18.486 21.1331C18.486 21.6177 18.0931 22.0106 17.6085 22.0106Z" id="Shape" fill="#9B9BA2" stroke="none" />
    <path d="M20.882 26.3981L25.038 26.3981C25.8444 26.3981 26.5005 25.742 26.5005 24.9356L26.5005 22.7288L21.7927 23.5448L20.882 26.3981Z" id="Path" fill="#454657" stroke="none" />
    <path d="M9.06996 26.3981L8.15935 23.5448L3.4515 22.7288L3.4515 24.9356C3.4515 25.742 4.10758 26.3981 4.914 26.3981L9.06996 26.3981Z" id="Path" fill="#454657" stroke="none" />
  </g>
</svg>