<?xml version="1.0" encoding="utf-8"?>
<svg width="29px" height="29px" viewBox="0 0 29 29" version="1.1" xmlns:xlink="http://www.w3.org/1999/xlink" xmlns="http://www.w3.org/2000/svg">
  <g id="004-restaurant">
    <path d="M27.5522 24.0518L16.4599 12.9594L3.50047 0L2.48769 0L2.28089 0.525483C1.73507 1.91248 1.50186 3.33108 1.60656 4.62774C1.7259 6.10579 2.28741 7.38543 3.23047 8.3285L13.3473 18.4453L14.6817 17.1109L24.0347 27.5694C24.9651 28.4998 26.5665 28.555 27.5522 27.5694C28.522 26.5995 28.522 25.0216 27.5522 24.0518Z" id="Path" fill="#9B9BA2" stroke="none" />
    <path d="M8.65922 16.1022L0.735764 24.0256C-0.233984 24.9954 -0.233984 26.5734 0.735764 27.5431C1.657 28.4644 3.25069 28.5457 4.25326 27.5431L12.1768 19.6196L8.65922 16.1022Z" id="Path" fill="#454657" stroke="none" />
    <path d="M27.0865 4.71001L22.5918 9.20459L21.4193 8.03208L25.9139 3.53744L24.7414 2.36492L20.2468 6.85951L19.0743 5.68699L23.5689 1.19241L22.3965 0.0199453L16.5339 5.88252C15.8167 6.59972 15.3885 7.55201 15.3279 8.56408C15.3126 8.8205 15.2545 9.07271 15.1581 9.31261L18.9664 13.1209C19.2063 13.0244 19.4586 12.9663 19.7149 12.951C20.727 12.8907 21.6793 12.4623 22.3965 11.7451L28.259 5.88258L27.0865 4.71001Z" id="Path" fill="#454657" stroke="none" />
  </g>
</svg>