<?xml version="1.0" encoding="utf-8"?>
<svg width="29px" height="32px" viewBox="0 0 29 32" version="1.1" xmlns:xlink="http://www.w3.org/1999/xlink" xmlns="http://www.w3.org/2000/svg">
  <g id="Group-6">
    <g id="002-health-insurance">
      <path d="M14.3272 0.111676C14.3272 0.111676 8.19994 3.16799 0.55914 4.18677C0.30243 4.22226 0.111838 4.44257 0.113742 4.7017L0.113742 15.5324C0.113742 22.1673 3.74627 26.103 7.3278 28.2917C10.9093 30.4804 14.4834 31.0075 14.4834 31.0075C14.5342 31.0153 14.5858 31.0153 14.6366 31.0075C14.6366 31.0075 18.2107 30.4804 21.7922 28.2917C25.3737 26.103 29.0062 22.1673 29.0062 15.5324L29.0062 4.7017C29.0084 4.44257 28.8176 4.22222 28.5608 4.18677C20.92 3.16799 14.7928 0.111676 14.7928 0.111676C14.715 0.0715065 14.6283 0.0516165 14.5408 0.0541515C14.4663 0.0580515 14.3934 0.0771615 14.3272 0.111676ZM23.8448 15.5323C23.8448 20.6552 19.6828 24.8222 14.56 24.8222C9.43707 24.8222 5.2751 20.6552 5.2751 15.5323C5.2751 10.4094 9.43707 6.24743 14.56 6.24743C19.6828 6.24743 23.8448 10.4094 23.8448 15.5323Z" id="path13638" fill="#454657" stroke="none" />
    </g>
    <path d="M12.4952 13.4726L9.91752 13.4726C9.63259 13.4715 9.40071 13.7016 9.39957 13.9865L9.39957 17.0831C9.4006 17.368 9.63259 17.5981 9.91752 17.597L12.4952 17.597L12.4952 20.1798C12.4962 20.4651 12.7288 20.6953 13.0142 20.6937L16.1057 20.6937C16.3907 20.6947 16.6226 20.4647 16.6237 20.1798L16.6237 17.597L19.2024 17.597C19.4873 17.5981 19.7192 17.368 19.7203 17.0831L19.7203 13.9865C19.7193 13.7016 19.4873 13.4715 19.2024 13.4726L16.6237 13.4726L16.6237 10.8899C16.6227 10.6049 16.3907 10.3748 16.1057 10.3759L12.9875 10.3759C12.6964 10.4019 12.495 10.6243 12.4952 10.8899L12.4952 13.4726Z" id="path13638-path" fill="#9B9BA2" fill-rule="evenodd" stroke="none" />
  </g>
</svg>