<?xml version="1.0" encoding="utf-8"?>
<svg width="30px" height="30px" viewBox="0 0 30 30" version="1.1" xmlns:xlink="http://www.w3.org/1999/xlink" xmlns="http://www.w3.org/2000/svg">
  <g id="006-store">
    <path d="M26.8798 6.24L29.12 11.44C29.12 13.1633 27.4903 14.56 25.48 14.56C23.5466 14.56 21.9648 13.2673 21.8473 11.6355C21.8462 11.6168 21.8348 11.6168 21.8327 11.6355C21.7152 13.2673 20.1334 14.56 18.2 14.56C16.2666 14.56 14.6848 13.2673 14.5673 11.6355C14.5662 11.6168 14.5548 11.6168 14.5527 11.6355C14.4352 13.2673 12.8534 14.56 10.92 14.56C8.98664 14.56 7.4048 13.2673 7.28728 11.6355C7.28624 11.6168 7.2748 11.6168 7.27272 11.6355C7.1552 13.2673 5.57336 14.56 3.64 14.56C1.62968 14.56 5.54223e-15 13.1633 5.54223e-15 11.44L2.24016 6.24L26.8798 6.24Z" id="XMLID_266_" fill="#9B9BA2" stroke="none" />
    <path d="M27.04 4.16L2.08 4.16L2.08 1.04C2.08 0.46592 2.54592 0 3.12 0L26 0C26.5741 0 27.04 0.46592 27.04 1.04L27.04 4.16Z" id="XMLID_269_" fill="#454657" stroke="none" />
    <path d="M27.04 16.4382L27.04 29.12L2.08 29.12L2.08 16.4382C2.57712 16.5672 3.09816 16.64 3.64 16.64C4.18184 16.64 4.7008 16.5526 5.2 16.4226L5.2 24.44C5.2 24.727 5.43296 24.96 5.72 24.96L23.4 24.96C23.687 24.96 23.92 24.727 23.92 24.44L23.92 16.4226C24.4192 16.5526 24.9382 16.64 25.48 16.64C26.0218 16.64 26.5429 16.5672 27.04 16.4382L27.04 16.4382Z" id="XMLID_270_" fill="#454657" stroke="none" />
  </g>
</svg>