<?xml version="1.0" encoding="utf-8"?>
<svg width="30px" height="30px" viewBox="0 0 30 30" version="1.1" xmlns:xlink="http://www.w3.org/1999/xlink" xmlns="http://www.w3.org/2000/svg">
  <g id="001-beach-chair">
    <path d="M14.2246 5.44856L10.465 1.68896C12.3037 0.62192 14.4336 -4.61853e-16 16.7123 -4.61853e-16C19.1802 -4.61853e-16 21.4744 0.72592 23.4109 1.96352C20.2878 2.65928 17.2115 3.83032 14.2246 5.44856L14.2246 5.44856Z" id="XMLID_1917_" fill="#9B9BA2" stroke="none" />
    <path d="M15.7596 6.98464C18.9327 5.33416 22.2024 4.21928 25.5128 3.67224C24.9657 6.98152 23.8508 10.2513 22.2004 13.4254L15.7596 6.98464Z" id="XMLID_1916_" fill="#9B9BA2" stroke="none" />
    <path d="M23.7364 14.9604C25.3547 11.9735 26.5257 8.8972 27.2215 5.77304C28.4591 7.70952 29.185 10.0038 29.185 12.4727C29.185 14.7524 28.5631 16.8823 27.496 18.72L23.7364 14.9604Z" id="XMLID_1915_" fill="#9B9BA2" stroke="none" />
    <path d="M2.78044 24.934L4.251 26.4046L1.84028 28.8153C1.43364 29.2219 0.77636 29.2219 0.36972 28.8153C-0.03692 28.4086 -0.03692 27.7514 0.36972 27.3447L2.78044 24.934Z" id="XMLID_1914_" fill="#454657" stroke="none" />
    <path d="M29.185 23.4C29.185 24.8362 28.0212 26 26.585 26L25.025 26L25.025 27.56C25.025 28.4211 24.3261 29.12 23.465 29.12C22.6039 29.12 21.905 28.4211 21.905 27.56L21.905 26L12.545 26L12.545 27.56C12.545 28.4211 11.8461 29.12 10.985 29.12C10.1239 29.12 9.425 28.4211 9.425 27.56L9.425 26L7.865 26C7.17548 26 6.51404 25.7254 6.02628 25.2387L0.82628 20.0387C-0.1898 19.0226 -0.1898 17.3774 0.82628 16.3623C1.84132 15.3462 3.48868 15.3462 4.50268 16.3623L7.9274 19.787L16.7736 10.9408L18.2442 12.4114L9.85556 20.8L26.585 20.8C28.0212 20.8 29.185 21.9638 29.185 23.4Z" id="XMLID_1912_" fill="#454657" stroke="none" />
  </g>
</svg>